<svg width="32" height="32" viewBox="0 0 32 32" fill="none" xmlns="http://www.w3.org/2000/svg">
<path d="M13.0562 2.23568C6.96012 1.24714 2.5986 7.17842 1.45444 10.2676H0.767944V1L16.0081 1L31.2482 1V10.2676H30.9049C27.6647 3.12812 21.294 1.93821 18.8913 2.23568L18.6167 14.3179H13.0562V2.23568Z" fill="#1F70D9"/>
<path d="M18.8914 17.7505H13.3308H13.0562C13.1477 20.8168 13.2759 27.2103 13.0562 28.2538C12.8365 29.2973 11.0883 29.97 10.2416 30.176V30.9998L16.1111 29.3522L21.9806 30.9998V30.176C20.333 29.6268 20.333 29.6268 18.8914 28.2538V17.7505Z" fill="#1F70D9"/>
<path d="M24.7672 5.3014V12.5254C23.8706 8.48557 20.5477 5.90924 19.0314 5.3014V4.45977C19.4269 4.81045 22.4597 6.33591 23.2508 6.26577C23.8838 6.20966 24.5914 5.72221 24.7672 5.3014Z" fill="#0A4591"/>
<path d="M12.9659 4.17922V4.95072C8.81234 5.72221 8.15305 7.26521 8.21898 9.64983C8.28491 12.0344 14.1526 13.4372 20.6796 15.0503C25.9012 16.3408 27.2505 19.9832 27.2725 21.6431C27.0615 27.5906 21.6536 28.7736 19.0973 28.8671V28.1657C20.5477 28.3294 23.6596 28.1797 24.2398 24.3082C24.965 19.4689 14.68 18.6272 10.7902 17.4349C6.90039 16.2426 3.14243 12.2449 5.44995 8.17697C7.29597 4.92267 11.2297 4.15585 12.9659 4.17922Z" fill="#0A4591"/>
<path d="M5.58181 29.358V19.048C7.32234 24.0417 11.1858 26.5526 12.9 27.1838L12.7681 28.3761L10.065 26.9734C8.21898 25.9214 6.21913 28.119 5.58181 29.358Z" fill="#0A4591"/>
</svg>
